<?xml version="1.0" standalone="no"?>
<!DOCTYPE svg PUBLIC "-//W3C//DTD SVG 20010904//EN"
 "http://www.w3.org/TR/2001/REC-SVG-20010904/DTD/svg10.dtd">
<svg version="1.0" xmlns="http://www.w3.org/2000/svg"
 width="1024.000000pt" height="1024.000000pt" viewBox="0 0 1024.000000 1024.000000"
 preserveAspectRatio="xMidYMid meet">
<metadata>
Created by potrace 1.16, written by Peter Selinger 2001-2019
</metadata>
<g transform="translate(0.000000,1024.000000) scale(0.100000,-0.100000)"
fill="#000000" stroke="none">
<path d="M5227 9680 c-11 -43 -27 -275 -27 -389 0 -83 3 -110 14 -114 17 -7
25 33 32 178 5 121 -8 366 -19 325z"/>
<path d="M5770 9597 c0 -3 -16 -79 -36 -169 -48 -221 -75 -425 -58 -432 15 -6
35 53 54 159 14 74 50 438 44 444 -2 2 -4 2 -4 -2z"/>
<path d="M6176 9218 c-42 -123 -85 -254 -97 -293 -11 -38 -22 -76 -24 -82 -3
-8 5 -13 20 -13 22 0 27 10 59 113 40 128 129 487 123 493 -2 3 -39 -96 -81
-218z"/>
<path d="M3803 9377 c4 -10 14 -46 22 -80 30 -116 124 -436 140 -473 l16 -38
20 20 20 20 -32 90 c-43 122 -179 467 -186 474 -3 3 -3 -3 0 -13z"/>
<path d="M4674 9279 c-282 -26 -519 -221 -631 -519 -41 -111 -57 -218 -49
-340 8 -140 34 -220 107 -336 116 -183 307 -263 490 -204 175 57 269 166 268
315 -1 86 -14 115 -23 50 -30 -203 -205 -302 -381 -216 -167 82 -278 294 -262
500 16 200 116 355 299 459 148 85 347 113 505 73 106 -26 218 -78 302 -139
97 -72 98 -72 41 14 -81 120 -178 211 -285 266 -134 69 -238 90 -381 77z"/>
<path d="M6672 9045 c-70 -147 -132 -293 -132 -310 0 -3 9 -5 20 -5 16 0 28
16 49 63 31 69 153 418 148 423 -1 1 -40 -75 -85 -171z"/>
<path d="M3330 9148 c0 -13 181 -441 217 -512 34 -68 40 -75 55 -64 16 12 12
24 -40 138 -88 192 -232 463 -232 438z"/>
<path d="M7630 8994 c-148 -75 -260 -103 -361 -89 -49 7 -50 8 -44 36 4 17 2
29 -3 29 -17 0 -164 -102 -208 -145 -34 -32 -44 -51 -54 -97 -7 -38 -16 -58
-26 -58 -9 0 -14 11 -14 30 0 23 -5 30 -19 30 -34 0 -154 -28 -196 -45 -172
-73 -344 -288 -405 -507 -25 -90 -47 -288 -34 -309 8 -13 30 -10 173 25 l164
41 24 85 c54 191 154 328 283 389 81 39 162 56 189 42 28 -15 28 -15 50 28 13
25 29 41 47 45 22 6 26 11 22 36 -3 17 0 30 5 30 5 0 24 16 42 36 49 53 75 22
39 -47 -14 -28 -14 -33 0 -54 35 -53 93 -38 81 22 -5 28 3 48 51 131 45 77 81
121 175 215 66 65 119 122 119 127 0 21 -20 16 -100 -26z"/>
<path d="M2922 8800 c14 -25 51 -94 83 -155 60 -114 153 -276 178 -309 11 -16
16 -17 34 -5 20 12 20 13 -19 78 -55 89 -267 402 -286 421 -8 8 -3 -5 10 -30z"/>
<path d="M2137 8733 c-4 -3 12 -39 34 -80 23 -41 70 -144 105 -230 l63 -156
-34 -38 c-98 -108 -46 -241 104 -265 51 -8 64 4 55 53 -4 23 0 43 15 68 27 45
26 54 -1 64 -27 10 -62 -5 -55 -23 8 -21 -30 -76 -53 -76 -29 0 -60 35 -60 68
0 39 32 86 73 105 45 22 50 21 73 -4 30 -33 66 -48 93 -38 21 8 23 13 17 53
-7 42 -6 44 34 70 l41 27 42 -47 c64 -71 74 -91 59 -112 -6 -9 -21 -34 -32
-54 l-20 -37 26 -31 c27 -31 27 -32 20 -151 -7 -109 -5 -124 13 -162 25 -51
86 -116 115 -122 11 -2 35 -6 51 -7 l30 -3 -34 -18 c-30 -17 -33 -22 -27 -50
7 -34 22 -48 46 -44 10 1 17 19 20 57 6 53 6 54 18 27 27 -62 26 -75 -6 -91
-30 -16 -42 -34 -42 -65 0 -16 13 -19 108 -23 79 -4 126 -12 181 -31 41 -15
78 -24 83 -21 16 10 8 43 -19 74 -25 30 -25 33 -10 45 9 7 17 19 17 28 0 12
-7 15 -35 10 -46 -7 -65 10 -65 57 0 46 30 86 71 95 31 7 31 8 24 54 -7 49 -7
55 -3 146 2 49 -3 70 -27 119 -51 101 -122 146 -233 146 -50 0 -58 4 -131 61
-43 33 -83 70 -88 83 -18 37 -113 135 -158 161 -33 20 -55 25 -102 24 -74 -2
-110 19 -203 117 -174 183 -176 185 -193 167z"/>
<path d="M5365 8692 c81 -40 138 -91 169 -154 25 -50 26 -55 20 -197 -4 -102
-3 -155 6 -176 l12 -30 13 39 c32 92 133 166 227 166 l50 0 -147 154 c-175
184 -225 217 -339 223 l-71 4 60 -29z"/>
<path d="M6385 8657 c-88 -39 -113 -56 -181 -119 -158 -148 -250 -339 -274
-567 -6 -52 -12 -96 -14 -98 -2 -3 -37 -16 -77 -30 -90 -31 -193 -34 -298 -8
-79 19 -76 14 -85 125 -16 199 -143 470 -268 571 -115 94 -203 123 -362 117
-129 -4 -193 -27 -270 -98 -65 -60 -91 -118 -90 -205 1 -81 24 -137 75 -179
43 -36 103 -34 132 6 l20 27 -21 56 c-28 73 -28 87 4 125 62 73 194 98 279 53
227 -121 269 -424 94 -680 -18 -27 -58 -72 -88 -101 l-55 -53 64 8 c106 13
384 7 510 -12 129 -19 303 -67 432 -119 103 -41 151 -65 318 -156 122 -67 180
-91 180 -74 0 5 -33 30 -73 55 -56 35 -84 61 -120 113 -51 73 -86 137 -116
214 l-19 48 111 24 c62 13 117 25 123 27 5 2 23 -29 38 -69 40 -103 119 -239
192 -330 67 -83 67 -82 -12 -93 -27 -4 -55 -8 -63 -11 -8 -3 49 -69 152 -173
172 -177 248 -278 386 -514 35 -59 66 -107 69 -107 4 0 18 16 31 35 37 55 151
158 214 193 81 46 222 91 322 103 176 22 360 -44 487 -173 97 -100 179 -226
207 -323 31 -102 38 -175 29 -300 -8 -100 -47 -278 -66 -297 -11 -11 -108 7
-117 23 -3 4 5 38 17 74 l23 65 42 -6 c44 -6 44 -7 58 62 6 30 5 31 -35 37
-23 3 -44 8 -47 10 -2 3 -2 30 2 60 l7 55 44 7 c42 6 44 8 44 40 0 57 -6 62
-54 55 l-43 -6 -12 49 c-15 65 -14 87 4 87 8 0 25 5 39 11 21 10 23 15 14 40
-16 46 -32 53 -69 32 -31 -18 -31 -18 -48 7 -9 14 -35 48 -58 76 l-41 51 29
30 29 29 -36 34 -35 35 -24 -27 c-12 -15 -25 -32 -27 -39 -3 -8 -17 -5 -48 11
-71 36 -72 37 -50 80 l19 38 -27 11 c-15 6 -41 15 -59 20 -27 8 -32 6 -37 -12
-3 -12 -6 -32 -6 -44 0 -22 -4 -23 -70 -23 l-70 0 0 41 0 42 -56 -6 c-72 -7
-79 -15 -60 -61 l15 -36 -37 -19 c-73 -37 -79 -36 -102 8 l-20 41 -39 -26
c-52 -34 -56 -48 -22 -87 l29 -33 -29 -39 c-46 -62 -46 -62 -83 -26 l-35 34
-20 -34 c-12 -19 -33 -66 -47 -106 l-26 -72 36 -128 c50 -178 66 -262 66 -348
l0 -73 43 -37 c106 -91 264 -138 395 -118 145 23 250 85 335 195 64 85 89 153
95 259 10 183 -81 345 -235 419 -69 34 -206 35 -278 2 -100 -46 -157 -134
-157 -242 0 -66 18 -113 62 -164 42 -47 79 -66 127 -66 48 1 76 16 105 59 43
63 121 63 154 -2 34 -64 -13 -145 -113 -194 -173 -84 -413 30 -478 228 -27 79
-17 216 20 292 44 92 113 160 212 209 75 37 94 42 171 46 70 3 99 0 149 -17
199 -67 325 -214 368 -430 37 -180 -31 -451 -150 -597 -27 -32 -62 -88 -79
-124 -29 -60 -31 -73 -31 -175 0 -100 2 -115 27 -160 38 -71 97 -125 153 -140
l46 -11 -108 -51 c-125 -59 -207 -78 -299 -70 -85 8 -161 43 -227 106 -72 68
-100 127 -105 218 -7 132 25 180 139 208 41 10 85 24 99 32 23 12 22 13 -21 7
-81 -10 -329 37 -396 76 l-31 18 -7 -96 c-9 -128 -47 -320 -84 -420 -33 -90
-116 -255 -192 -384 -28 -48 -49 -91 -48 -97 2 -6 35 3 74 20 122 52 210 72
320 73 55 1 118 -2 140 -6 40 -7 40 -7 67 40 47 84 53 86 136 57 169 -59 363
-9 529 138 39 34 110 86 156 115 112 68 187 148 218 231 8 20 -3 13 -48 -31
-106 -104 -225 -135 -323 -85 -63 31 -90 76 -90 146 0 96 40 153 177 252 94
68 193 172 242 253 79 133 123 335 103 483 -50 372 -304 668 -669 780 -81 25
-102 27 -263 27 -147 0 -192 -4 -280 -23 -128 -29 -274 -31 -370 -6 -136 35
-275 123 -341 217 l-22 30 49 -35 c125 -89 240 -120 362 -98 146 26 266 110
316 221 29 63 45 163 36 220 l-6 35 -8 -40 c-20 -101 -89 -195 -174 -236 -65
-31 -166 -31 -245 0 -237 93 -345 480 -167 597 136 90 343 -22 328 -177 -9
-91 -45 -116 -126 -87 -30 11 -35 11 -48 -7 -31 -42 -4 -121 53 -156 27 -17
45 -20 84 -17 71 7 126 48 164 123 27 54 30 67 30 159 0 90 -3 107 -28 158
-73 149 -259 227 -414 174 -59 -20 -139 -86 -168 -139 -16 -31 -25 -36 -79
-47 -34 -6 -166 -36 -295 -66 -128 -30 -237 -51 -242 -48 -9 5 -13 74 -4 74 2
0 20 -7 39 -17 29 -13 38 -14 51 -3 32 26 11 77 -27 66 -7 -3 -26 -7 -42 -11
l-29 -6 6 103 c14 243 105 454 262 613 44 44 94 90 110 102 39 29 14 28 -50 0z
m2023 -2230 c128 -179 147 -408 52 -638 -49 -118 -91 -169 -195 -235 l-60 -38
91 90 c148 145 200 281 191 494 -8 178 -55 290 -167 393 l-65 60 60 -40 c33
-22 75 -61 93 -86z"/>
<path d="M7620 8478 c-186 -193 -296 -330 -284 -350 17 -27 69 29 249 267 54
72 109 142 123 157 14 15 24 29 21 31 -2 2 -51 -45 -109 -105z"/>
<path d="M3787 8329 c-82 -19 -151 -80 -188 -163 -30 -70 -30 -198 1 -280 31
-80 124 -175 200 -204 34 -12 49 -22 40 -26 -108 -39 -233 -88 -263 -102 l-37
-18 1 -75 c0 -42 4 -97 8 -123 l8 -47 -31 5 c-17 3 -53 10 -79 15 -59 11 -107
12 -107 1 0 -5 19 -19 43 -32 73 -41 180 -116 232 -162 l50 -46 55 52 c132
122 287 222 480 311 137 62 194 100 255 167 50 55 93 124 83 133 -3 3 -31 -10
-63 -30 -32 -19 -74 -40 -93 -46 -51 -17 -148 -6 -212 24 -87 40 -86 38 -51
92 27 43 39 75 28 75 -2 0 -30 -9 -62 -20 -145 -50 -275 -6 -348 117 -17 28
-26 114 -17 169 16 99 87 172 185 190 31 6 35 8 20 14 -38 14 -100 18 -138 9z"/>
<path d="M7922 8039 c-199 -170 -282 -250 -282 -272 0 -46 56 0 273 227 93 97
167 176 165 176 -2 0 -72 -59 -156 -131z"/>
<path d="M5722 8137 c-59 -62 18 -151 86 -100 34 26 39 62 12 96 -27 34 -68
36 -98 4z"/>
<path d="M3867 8062 c-23 -25 -21 -78 3 -102 41 -41 120 -12 120 44 0 13 -9
35 -21 50 -25 32 -77 36 -102 8z"/>
<path d="M1995 7769 c284 -268 369 -339 387 -321 9 9 7 17 -8 33 -40 45 -402
335 -454 364 -8 5 26 -30 75 -76z"/>
<path d="M8209 7657 c-236 -174 -271 -202 -281 -228 -9 -24 -6 -24 41 0 50 26
116 79 299 239 130 115 163 145 150 141 -2 0 -96 -69 -209 -152z"/>
<path d="M3275 7633 c-27 -8 -56 -17 -62 -19 -18 -5 -16 -45 3 -72 15 -22 44
-30 44 -13 0 5 14 14 31 21 24 10 35 10 53 1 30 -16 70 -11 74 11 4 21 -55 88
-77 87 -9 0 -38 -7 -66 -16z"/>
<path d="M4880 7389 c-280 -32 -611 -155 -713 -264 -13 -15 -37 -58 -51 -95
-15 -36 -39 -78 -54 -93 -29 -28 -98 -61 -150 -72 -32 -7 -32 -6 -21 22 5 15
31 50 57 77 59 61 42 52 -73 -39 -118 -94 -246 -230 -318 -338 -71 -106 -171
-294 -160 -300 4 -2 22 -7 38 -11 17 -4 48 -19 70 -33 22 -15 82 -48 132 -74
51 -26 113 -62 138 -79 25 -17 50 -28 57 -24 6 4 9 3 6 -2 -3 -5 6 -18 21 -29
25 -18 25 -18 11 0 -14 17 -13 18 2 13 23 -9 29 13 16 56 -8 26 -14 33 -21 24
-6 -9 -7 -8 -3 5 3 10 -4 41 -15 68 -19 43 -23 47 -34 33 -14 -20 -45 -13 -45
10 0 8 -14 17 -32 21 -48 11 -49 13 -22 40 30 30 31 61 3 76 -17 9 -19 13 -8
20 8 5 24 9 37 9 31 0 28 16 -17 74 -22 28 -44 63 -50 79 -12 30 -19 32 -71
17 -34 -9 -34 -8 25 46 l60 54 11 -59 c12 -63 25 -89 81 -158 37 -46 68 -55
78 -23 8 26 20 25 39 -2 13 -19 20 -20 43 -12 42 14 43 52 2 86 -24 20 -36 25
-50 18 -9 -5 -43 -11 -74 -12 -52 -3 -59 -1 -79 25 -16 22 -21 43 -21 87 0 73
19 101 101 147 79 44 127 57 156 42 l21 -11 -24 -14 c-13 -7 -33 -13 -44 -14
-31 0 -117 -44 -143 -72 -30 -33 -39 -90 -19 -122 11 -17 29 -26 63 -31 25 -3
52 -9 59 -11 9 -4 11 6 8 39 -13 108 99 191 185 138 53 -34 69 -72 77 -179 4
-53 15 -156 24 -229 13 -109 19 -131 30 -124 16 10 25 63 46 286 8 88 23 216
32 285 24 184 24 184 -15 190 l-33 5 30 33 c16 17 37 32 46 32 18 0 35 38 35
78 l0 27 20 -25 c19 -25 20 -25 50 -7 39 21 54 22 46 2 -3 -8 -1 -15 5 -15 6
0 -6 -16 -27 -35 -30 -29 -34 -37 -24 -50 6 -8 20 -17 31 -20 27 -9 24 -23 -6
-31 -20 -5 -25 -12 -25 -37 l0 -31 -29 28 c-47 45 -65 33 -69 -44 -1 -36 1
-97 5 -136 l8 -70 33 8 c20 5 36 18 41 31 8 20 10 18 16 -16 7 -34 10 -38 32
-34 34 6 37 -8 7 -32 l-26 -21 23 -20 24 -21 -33 4 c-30 3 -34 1 -39 -25 -7
-34 -23 -48 -23 -19 0 37 -12 51 -41 51 -47 0 -48 -28 -15 -320 8 -63 14 -98
15 -76 l1 39 30 -38 c29 -37 30 -39 14 -64 -12 -19 -13 -22 -2 -11 25 25 193
276 175 262 -15 -13 -37 -9 -37 7 0 4 6 15 13 25 13 18 52 12 40 -7 -3 -6 -1
-7 5 -3 6 4 21 25 33 46 16 29 37 47 73 65 l51 24 -57 -6 c-52 -5 -62 -3 -97
21 -75 52 -120 141 -121 239 0 112 60 188 212 267 l81 43 98 -6 c89 -5 102 -8
143 -37 69 -47 142 -139 150 -189 13 -80 -24 -179 -92 -244 -35 -34 -163 -97
-198 -97 -8 0 -4 -9 11 -25 31 -30 33 -85 5 -150 -11 -26 -20 -51 -20 -56 0
-14 139 -81 152 -73 6 4 8 3 5 -3 -8 -13 47 -66 58 -56 4 5 5 3 1 -4 -4 -7 0
-23 8 -35 18 -29 42 -145 32 -155 -4 -4 -14 1 -23 12 -8 11 -19 19 -24 17 -6
-1 -8 2 -5 7 9 14 -32 122 -55 147 -11 11 -52 34 -92 49 -118 45 -123 56 -82
155 28 66 32 117 12 144 -11 16 -22 18 -59 12 -61 -9 -95 -45 -108 -115 -5
-30 -35 -110 -65 -179 -34 -76 -52 -129 -46 -135 6 -6 14 -1 21 12 6 12 16 19
21 15 6 -4 4 -13 -7 -25 -9 -10 -14 -19 -9 -19 4 0 2 -7 -5 -15 -13 -16 -8
-19 24 -15 12 1 16 -2 11 -11 -5 -8 -4 -10 4 -5 6 4 8 12 5 18 -4 6 -1 8 7 6
8 -3 56 16 107 43 51 26 108 51 128 55 67 12 124 -34 110 -91 -8 -30 -60 -65
-98 -65 -57 0 -23 -27 64 -50 50 -14 68 -26 68 -47 0 -12 -8 -14 -37 -8 -58
10 -156 45 -174 61 -14 13 -21 11 -60 -22 -50 -41 -70 -60 -52 -50 6 3 15 2
18 -4 5 -8 11 -7 21 1 12 10 13 9 8 -5 -5 -12 1 -18 26 -23 l33 -6 -29 -15
c-16 -9 -47 -19 -69 -23 -23 -4 33 -7 130 -8 94 0 186 2 206 5 35 6 37 9 43
53 4 25 8 54 9 63 1 9 4 16 7 15 3 -1 25 17 50 41 25 23 73 57 107 73 55 28
76 32 185 38 153 10 178 21 215 96 30 61 48 72 38 23 -12 -54 -22 -74 -55
-111 l-31 -36 33 15 c18 8 40 19 48 23 15 8 80 84 112 131 l17 25 -6 -40 c-7
-53 -57 -131 -103 -161 -33 -22 -49 -24 -190 -30 -308 -12 -351 -45 -416 -325
-38 -164 -43 -214 -30 -295 7 -43 6 -51 -7 -51 -9 0 -16 3 -15 6 2 18 -3 32
-9 28 -20 -13 -21 218 -1 298 l14 61 -75 -22 c-42 -12 -125 -32 -184 -45 -61
-13 -102 -26 -95 -30 6 -4 19 -4 28 1 9 5 22 5 31 -1 7 -5 23 -9 35 -9 16 0
44 -34 44 -54 0 -1 -24 -1 -52 0 -51 2 -49 1 62 -37 129 -45 164 -71 154 -117
-9 -41 -42 -65 -80 -59 -35 6 -56 -7 -47 -30 4 -10 -3 -13 -29 -11 -33 2 -35
4 -31 32 3 17 5 36 6 43 0 6 7 9 15 5 9 -3 13 -1 9 4 -3 6 15 8 50 4 41 -5 56
-3 60 7 9 24 -5 27 -115 30 -72 1 -95 -1 -72 -6 20 -5 26 -9 15 -10 -27 -1
-45 -20 -45 -45 0 -16 -2 -18 -9 -7 -6 9 -11 10 -15 2 -4 -6 -13 -9 -19 -5 -7
3 2 -6 18 -20 17 -14 36 -24 42 -21 7 2 12 -1 10 -8 -1 -7 6 -11 15 -11 10 1
16 -3 15 -10 -1 -6 6 -10 16 -9 10 0 16 -2 13 -5 -3 -3 10 -16 29 -29 38 -26
40 -29 25 -68 -13 -33 -14 -33 -198 40 -75 30 -129 48 -120 41 10 -7 15 -16
11 -20 -4 -4 1 -4 12 -1 16 5 15 2 -6 -17 -14 -12 -34 -27 -43 -33 -15 -9 -13
-20 29 -115 95 -217 114 -306 74 -351 l-20 -24 5 58 c7 64 -7 102 -47 134 -12
10 -42 46 -66 80 -24 34 -48 61 -54 60 -6 -1 -11 5 -12 13 0 9 -13 31 -28 50
-16 19 -24 25 -17 13 8 -18 8 -23 -2 -23 -10 0 -10 -2 1 -9 11 -7 9 -11 -8
-20 -11 -7 -21 -8 -21 -4 0 4 -6 -1 -12 -12 -11 -18 -12 -18 -18 -1 -10 30
-44 -424 -37 -509 7 -100 47 -183 117 -248 27 -25 50 -53 50 -62 0 -20 -1 -20
-70 15 -50 25 -64 38 -85 80 -14 27 -32 78 -39 112 -15 65 -40 300 -52 493 -5
85 -9 104 -17 85 -9 -24 -9 -24 -17 -5 -8 18 -9 18 -10 -5 0 -14 -7 -101 -15
-193 -16 -188 -27 -220 -85 -249 -66 -32 -128 -19 -181 39 -57 61 -63 110 -24
221 30 87 31 102 4 136 -26 33 -88 36 -137 6 -28 -17 -82 -88 -95 -124 -8 -22
-15 0 -10 32 3 18 19 46 35 62 38 39 23 39 -23 0 -66 -54 -85 -132 -54 -220
25 -70 17 -78 -20 -20 -28 42 -35 64 -35 102 0 52 22 116 45 134 8 6 43 67 78
135 35 68 85 164 112 213 l48 88 -32 -16 c-17 -9 -29 -21 -26 -26 4 -6 -1 -7
-11 -3 -13 5 -15 3 -9 -7 5 -8 4 -11 -3 -6 -14 8 -280 -113 -327 -149 -41 -31
-45 -63 -15 -112 17 -28 18 -33 4 -33 -26 0 -74 59 -74 91 0 53 23 80 139 164
152 109 196 144 196 158 1 7 7 11 14 9 17 -4 42 18 35 29 -3 5 -20 7 -37 4
-18 -3 -104 -10 -192 -15 -88 -6 -172 -13 -188 -16 l-27 -6 25 -24 c26 -24 36
-62 13 -47 -7 4 -27 8 -45 8 -29 0 -32 -2 -26 -25 31 -131 55 -217 78 -276 54
-136 136 -299 199 -393 77 -115 260 -316 455 -501 176 -166 252 -258 307 -375
43 -90 56 -133 114 -375 43 -184 50 -236 56 -440 8 -272 36 -370 116 -409 61
-29 275 -79 392 -92 56 -6 190 -9 310 -7 189 5 221 8 310 32 167 45 208 65
231 111 17 36 20 70 26 340 10 411 29 584 87 755 71 208 179 360 368 516 104
86 167 153 270 289 69 91 161 226 172 253 4 9 33 64 64 122 83 154 123 254
155 387 26 110 28 132 28 338 0 193 -3 233 -23 324 -27 123 -93 322 -107 325
-5 0 -13 -31 -16 -70 -10 -109 -34 -145 -114 -168 -70 -21 -102 -48 -116 -99
-8 -32 -13 -38 -20 -25 -26 47 39 132 120 157 86 25 121 118 86 229 -6 19 -4
22 20 22 32 0 30 9 -20 115 -98 204 -311 446 -525 594 -404 278 -543 337 -923
386 -126 16 -344 18 -467 4z m354 -69 c-75 -42 -79 -65 -20 -101 49 -30 1 -25
-57 7 -90 47 -197 40 -240 -18 -30 -40 -25 -77 13 -110 l33 -27 -39 6 c-70 10
-91 33 -85 93 5 40 27 73 65 94 55 32 113 40 180 25 l55 -12 41 36 c29 27 49
37 73 37 32 0 32 0 -19 -30z m-449 8 c30 -13 32 -29 7 -52 -13 -11 -28 -14
-49 -10 -47 9 -101 -13 -119 -48 -19 -36 -12 -58 17 -58 16 0 20 5 16 19 -3
14 3 23 24 31 52 22 65 -9 25 -57 -30 -36 -140 -74 -120 -41 4 6 8 39 8 72 1
76 21 110 79 137 49 22 76 24 112 7z m719 6 c33 -13 14 -19 -50 -16 -86 5
-105 -12 -33 -27 59 -13 96 -30 69 -32 -31 -2 -87 3 -129 12 -45 10 -85 4 -76
-11 3 -5 36 -9 73 -9 171 1 209 -7 337 -70 113 -56 127 -67 240 -178 133 -130
162 -174 217 -334 31 -89 33 -101 33 -234 -1 -160 -15 -226 -71 -338 -57 -114
-132 -215 -239 -322 -100 -100 -122 -116 -368 -260 -108 -63 -201 -141 -193
-161 3 -8 0 -11 -8 -8 -20 8 -96 -73 -121 -130 -56 -126 -58 -261 -6 -371 38
-83 119 -164 256 -260 134 -93 229 -190 291 -295 48 -83 49 -87 49 -165 -1
-90 -26 -157 -91 -246 -33 -46 -142 -141 -207 -183 -28 -17 -29 -17 -43 1 -27
36 -28 56 -3 73 42 27 149 126 175 161 59 80 67 218 19 325 -30 67 -128 171
-245 258 -158 119 -225 187 -270 280 -66 134 -73 245 -23 399 29 90 79 163
179 258 80 76 149 124 294 204 233 128 334 218 423 376 96 172 123 301 107
525 -7 104 -14 146 -40 219 -40 114 -82 180 -134 212 -23 14 -59 43 -81 64
-45 43 -81 59 -130 59 -78 0 -115 -43 -115 -132 0 -61 28 -101 94 -133 70 -34
115 -30 179 14 52 35 71 39 62 12 -4 -13 5 -25 36 -45 44 -30 64 -67 79 -148
7 -36 7 -55 -1 -64 -9 -10 -9 -14 0 -14 6 0 11 -14 11 -32 0 -30 -1 -31 -15
-12 -8 10 -15 15 -15 9 -1 -5 -2 -45 -3 -87 -1 -47 -7 -82 -15 -90 -21 -21
-32 8 -32 85 0 58 4 73 25 102 35 44 39 88 13 142 -23 49 -51 73 -86 73 -31 0
-82 -23 -110 -49 -22 -22 -23 -22 -80 -6 -100 30 -165 75 -199 140 -21 39 -20
133 1 174 18 34 86 88 123 97 13 4 23 9 23 13 0 8 -84 37 -130 45 -22 4 -12
-2 25 -15 62 -21 91 -39 64 -39 -8 0 -57 14 -108 30 -74 24 -112 31 -179 31
-70 0 -90 4 -113 21 l-28 21 24 19 c14 11 42 22 62 25 21 4 52 15 68 25 30 18
107 24 139 12z m636 -359 c18 -17 45 -29 85 -35 93 -15 120 -28 168 -79 50
-53 82 -109 104 -183 13 -45 13 -52 -4 -81 -36 -61 -142 -69 -189 -15 l-19 22
27 -17 c34 -21 86 -22 115 -2 13 9 28 33 34 54 23 78 -46 213 -128 248 -19 7
-77 16 -129 20 l-95 6 -19 37 c-28 56 2 71 50 25z m-173 -257 c31 -29 30 -72
-2 -103 -27 -28 -42 -30 -79 -13 -46 20 -51 78 -10 116 32 28 61 28 91 0z
m-295 -146 c70 -31 134 -94 158 -158 33 -91 23 -149 -41 -222 l-36 -42 9 57
c5 32 7 79 4 105 -22 202 -253 279 -388 130 -76 -84 -59 -220 33 -268 24 -12
42 -13 90 -6 64 10 76 1 29 -23 -48 -25 -100 -19 -154 17 -87 57 -130 157
-105 246 18 65 107 154 175 176 64 21 165 15 226 -12z m638 -89 c20 -57 24
-63 49 -63 36 0 42 -7 30 -36 -7 -19 -5 -26 6 -30 24 -10 17 -22 -10 -16 -18
3 -25 0 -25 -12 0 -18 -15 -21 -26 -5 -3 6 -15 9 -25 6 -11 -3 -19 0 -19 8 0
7 -8 19 -17 26 -12 10 -15 11 -9 1 9 -15 -10 -42 -31 -42 -9 0 -13 7 -10 18 3
9 8 30 11 45 5 22 12 27 29 25 39 -5 36 27 -18 177 -5 14 0 11 18 -10 15 -16
36 -58 47 -92z m-669 -133 c24 -23 30 -37 27 -62 l-3 -33 -72 -6 c-39 -3 -78
-11 -86 -17 -19 -16 -27 3 -27 63 0 35 5 48 26 64 41 32 98 28 135 -9z m-462
-66 c19 23 28 20 34 -12 4 -18 16 -33 34 -42 25 -12 26 -14 8 -18 -32 -7 -45
-22 -45 -55 0 -29 -1 -29 -18 -14 -24 22 -38 21 -55 -3 -16 -23 -27 -17 -27
16 0 13 -12 36 -27 51 l-28 28 30 5 c27 4 30 10 33 44 l3 40 23 -28 c20 -25
23 -27 35 -12z m1061 -163 c-12 -98 -12 -114 3 -153 10 -25 33 -60 53 -79 32
-31 41 -34 92 -34 31 0 68 4 82 8 l25 8 -28 -25 c-50 -46 -134 -43 -207 7 -78
52 -96 137 -56 275 14 50 26 99 26 108 0 14 3 15 11 7 9 -9 8 -39 -1 -122z
m544 -245 c63 -26 73 -126 12 -126 -24 0 -54 25 -43 37 4 3 9 -2 13 -11 8 -21
30 -21 38 0 12 32 -14 46 -73 42 -77 -7 -101 -36 -101 -123 0 -83 -13 -118
-20 -52 -6 58 -21 59 -37 3 -16 -53 -47 -82 -98 -94 -45 -10 -83 -1 -102 24
-9 12 -8 25 3 56 13 36 12 44 -1 64 -29 45 -98 43 -149 -4 l-29 -27 13 25 c24
47 41 60 84 60 46 0 99 -28 116 -61 7 -12 10 -36 7 -54 -6 -37 7 -55 38 -55
38 0 63 29 99 117 46 108 77 150 130 174 50 22 57 23 100 5z m-885 -251 c-17
-107 -39 -147 -109 -202 -75 -58 -80 -60 -80 -33 0 14 23 45 64 84 71 69 104
137 114 241 l6 60 8 -40 c6 -25 5 -66 -3 -110z m-596 53 c39 -4 52 -42 18 -53
-13 -4 -21 -15 -21 -28 0 -12 -4 -29 -9 -36 -8 -12 -13 -11 -29 9 -11 13 -24
20 -31 16 -6 -4 -9 -11 -7 -15 3 -4 -4 -8 -15 -8 -17 -2 -19 2 -14 28 6 28 5
29 -27 29 -33 0 -33 1 -12 18 12 9 24 25 27 35 5 13 13 16 32 11 15 -4 25 -2
25 4 0 6 5 23 12 39 l12 28 4 -37 c3 -33 6 -37 35 -40z m1322 -118 c10 -16
-21 -57 -63 -85 -55 -36 -113 -46 -201 -33 -42 6 -93 8 -113 4 -76 -14 -130
-86 -142 -189 -12 -108 -63 -187 -122 -187 -88 0 -147 108 -89 165 27 28 57
32 74 11 9 -11 6 -17 -14 -30 -31 -20 -35 -71 -6 -81 25 -8 68 10 80 34 6 11
11 44 11 74 0 93 -55 133 -149 107 -94 -25 -158 -123 -167 -253 -8 -108 -14
-138 -26 -131 -7 4 -8 3 -4 -4 11 -18 26 -14 26 6 1 32 28 -16 40 -71 9 -43 8
-53 -6 -68 -10 -11 -12 -19 -6 -19 6 0 14 5 17 10 4 6 35 -16 72 -51 162 -150
271 -184 448 -139 101 26 271 107 312 150 34 35 37 56 4 26 -52 -47 -133 -37
-194 24 l-38 38 -18 -36 c-25 -50 -45 -66 -124 -102 -37 -17 -67 -35 -67 -40
0 -6 -4 -10 -10 -10 -5 0 -7 6 -4 14 4 9 -7 15 -37 20 -105 17 -171 88 -177
191 -4 56 -1 66 19 86 l24 24 5 -76 c6 -85 20 -111 77 -135 110 -47 257 24
279 134 11 55 -23 159 -68 208 l-38 42 26 17 c30 19 26 32 -5 15 -12 -6 -21
-8 -21 -4 0 13 35 33 57 34 16 0 23 8 28 32 l7 32 15 -28 c12 -23 17 -25 29
-15 12 10 17 10 27 0 9 -10 8 -16 -8 -27 -16 -12 -17 -18 -8 -33 10 -16 9 -20
-4 -26 -10 -3 -20 0 -25 10 -12 21 -35 19 -48 -5 -8 -14 -6 -22 5 -32 65 -54
83 -88 100 -185 14 -83 37 -115 92 -133 18 -7 46 -9 62 -5 45 10 117 70 147
123 15 26 34 55 42 65 8 9 13 19 10 22 -12 12 -61 -17 -102 -60 -33 -33 -52
-45 -74 -45 -64 0 -111 75 -78 125 25 38 77 32 53 -6 -24 -39 27 -70 89 -55
13 4 24 12 24 19 0 17 39 53 65 61 32 9 49 -8 47 -52 -2 -51 -46 -200 -77
-261 -22 -45 -75 -101 -95 -101 -5 0 -15 -3 -24 -6 -8 -3 7 27 34 68 27 40 50
77 50 81 0 5 -37 -30 -82 -78 -70 -74 -94 -92 -172 -130 -127 -61 -192 -78
-285 -74 -65 3 -89 10 -161 45 -101 49 -160 94 -217 166 -96 120 -129 229
-118 388 8 110 20 135 100 208 98 90 220 125 296 84 l37 -19 26 33 c14 18 51
45 81 60 53 25 61 26 138 19 149 -15 179 -12 238 23 61 35 65 36 74 22z m221
-55 c47 -19 79 -88 69 -148 -15 -89 -61 -138 -129 -136 l-41 1 39 8 c77 15
122 102 92 174 -16 38 -48 53 -91 42 -28 -7 -65 -59 -65 -91 0 -34 28 -65 59
-65 33 0 41 14 41 72 0 32 3 39 18 36 12 -2 18 -15 20 -46 3 -36 -1 -47 -27
-72 -50 -51 -129 -39 -150 21 -27 78 4 169 69 201 43 22 51 22 96 3z m-1342
-175 c39 -35 39 -59 -2 -90 -25 -20 -77 -26 -99 -12 -25 16 -34 61 -18 92 25
48 71 52 119 10z m-487 -92 c-3 -24 -22 -83 -42 -133 -31 -73 -38 -103 -39
-161 -1 -61 3 -76 27 -112 25 -39 26 -42 8 -42 -14 0 -24 13 -36 48 -9 26 -21
56 -25 67 l-9 20 0 -20 c-1 -11 10 -43 23 -72 l24 -52 -101 -57 c-122 -69
-175 -121 -223 -220 -31 -61 -38 -88 -42 -152 -5 -96 9 -149 53 -204 19 -24
51 -64 71 -90 56 -74 109 -94 289 -111 129 -12 161 -19 228 -47 106 -45 171
-119 116 -133 -13 -4 -19 -12 -17 -23 4 -23 24 -29 32 -9 3 9 2 13 -3 10 -5
-3 -13 0 -16 6 -5 7 0 10 11 7 14 -2 22 -19 32 -63 12 -52 11 -76 -3 -180 -13
-94 -15 -140 -7 -210 37 -362 -13 -560 -170 -666 -124 -85 -287 -129 -398
-109 -79 13 -173 63 -211 111 -82 101 -51 257 60 313 48 25 71 29 71 13 0 -16
21 -27 48 -27 15 1 15 2 -1 15 -18 13 -17 14 12 29 16 9 37 16 46 16 14 0 14
-3 0 -31 -11 -21 -32 -37 -63 -50 -88 -37 -112 -52 -132 -84 -43 -69 -13 -170
65 -224 92 -63 252 -49 322 27 18 20 33 32 33 27 0 -5 -7 -17 -17 -27 -15 -17
-15 -18 4 -18 28 0 92 48 145 111 160 188 200 347 142 570 l-25 99 16 105 c21
131 12 183 -47 273 -63 97 -88 107 -273 107 -149 0 -151 0 -215 32 -123 61
-210 155 -259 282 -36 89 -22 240 30 343 23 45 79 110 121 139 25 18 31 19 46
7 16 -12 16 -11 2 5 -16 22 -13 25 103 103 67 45 78 56 55 52 -20 -4 -21 83
-3 155 22 87 59 164 96 198 21 19 26 29 16 29 -9 0 -19 5 -22 10 -12 20 4 40
31 40 25 0 26 -2 21 -42z m567 -464 c10 -40 46 -82 98 -116 74 -47 86 -81 43
-123 -27 -28 -66 -32 -85 -10 -10 13 -9 15 8 15 12 0 26 9 32 19 8 17 3 24
-41 51 -61 37 -95 100 -84 156 7 40 20 44 29 8z m-555 -176 c23 -41 -5 -93
-65 -119 -61 -27 -98 -16 -102 31 -5 51 6 79 41 101 47 28 107 23 126 -13z
m938 -70 c-3 -13 -10 -41 -16 -62 -7 -30 -6 -59 6 -114 15 -73 14 -150 -2
-186 -8 -17 -5 -18 37 -12 l46 7 -1 -51 c-2 -40 -5 -50 -19 -50 -10 0 -23 -9
-30 -20 -18 -28 -31 -25 -26 5 6 30 7 30 -37 5 -20 -11 -38 -20 -41 -20 -8 0
24 56 40 69 9 8 16 24 16 37 0 19 -5 24 -25 24 -30 0 -32 11 -5 35 28 25 35
78 20 144 -22 93 -11 180 24 203 17 12 19 10 13 -14z m138 -30 c2 -7 9 -32 15
-56 15 -59 65 -111 112 -119 48 -7 88 3 88 23 0 11 -6 13 -21 9 -20 -7 -20 -6
-4 24 20 39 52 41 66 5 11 -32 4 -61 -24 -91 -59 -65 -194 -19 -251 86 -24 46
-34 109 -19 124 11 11 33 8 38 -5z m-2006 -31 c-4 -39 8 -60 28 -53 11 4 13 1
8 -15 -4 -13 0 -27 11 -40 17 -18 16 -19 -14 -19 -29 0 -32 -3 -32 -32 l0 -32
-28 27 c-26 25 -29 26 -56 12 -36 -19 -40 -16 -26 21 7 17 7 30 2 32 -5 1 -18
9 -28 17 -18 13 -18 14 9 24 17 7 27 18 27 31 0 22 19 27 37 9 8 -8 17 -2 34
20 12 17 25 31 27 31 2 0 2 -15 1 -33z m804 -23 c3 -4 0 -19 -8 -35 -21 -40
-19 -76 5 -89 17 -9 26 -7 51 14 58 49 111 46 167 -10 28 -28 33 -40 30 -67
-3 -17 -8 -40 -12 -49 -6 -14 -4 -16 13 -13 22 4 29 -9 11 -20 -5 -3 -10 -2
-10 4 0 5 -8 8 -17 6 -10 -1 -17 -8 -15 -15 1 -6 -2 -9 -7 -6 -14 9 -81 -26
-74 -38 4 -8 2 -8 -6 0 -8 8 -25 8 -55 1 -74 -17 -164 14 -137 47 7 8 19 12
27 9 8 -3 14 0 14 7 0 6 5 8 12 4 16 -10 107 -5 129 7 43 23 50 109 8 109 -22
0 -23 -3 -6 -31 10 -18 9 -23 -12 -40 -27 -22 -54 -18 -89 15 -49 44 -75 130
-56 180 6 16 25 21 37 10z m397 -19 c0 -2 -11 -15 -25 -29 -36 -36 -32 -63 8
-57 4 0 6 -2 5 -6 -1 -5 4 -21 10 -36 15 -35 14 -75 -2 -151 -13 -62 -10 -120
5 -110 5 3 6 10 3 16 -4 7 -2 8 4 4 15 -9 15 9 2 34 -9 17 -3 25 20 28 3 1 22
8 44 17 37 16 39 16 62 -6 13 -12 24 -17 24 -11 0 6 -7 15 -16 20 -23 13 -4
21 25 11 20 -8 22 -11 10 -26 -30 -36 -162 -121 -144 -94 3 5 1 12 -4 15 -9 6
-26 -11 -26 -26 0 -5 -4 -8 -10 -9 -5 -1 -27 -10 -47 -20 -46 -24 -57 -24 -29
-1 12 9 25 31 29 47 13 47 15 207 2 239 -16 42 -20 28 -7 -22 9 -35 8 -55 -6
-109 -12 -45 -14 -70 -7 -77 5 -5 10 -15 10 -21 0 -5 -4 -3 -10 5 -11 17 -10
17 -38 -37 -15 -30 -18 -43 -9 -47 7 -3 2 -3 -10 -1 -12 3 -24 1 -28 -5 -11
-18 -95 -10 -95 10 0 5 15 12 33 15 46 11 87 43 104 83 17 40 11 52 -15 29
-10 -10 -26 -17 -35 -17 -13 0 -9 15 24 76 37 72 39 80 33 135 -8 67 6 111 39
127 22 11 67 16 67 7z m130 -5 c0 -5 -4 -10 -9 -10 -12 0 -71 -49 -71 -59 0
-4 26 -2 58 4 63 13 100 7 116 -18 14 -22 8 -26 -55 -32 -29 -3 -73 -8 -96
-11 -36 -4 -43 -2 -43 12 0 10 -12 31 -27 47 -16 16 -23 31 -18 34 6 2 28 12
50 22 44 21 95 27 95 11z m410 -589 c16 -57 12 -142 -9 -188 -11 -23 -38 -62
-60 -86 -23 -24 -41 -53 -41 -63 0 -36 -14 -46 -43 -33 l-25 11 35 36 c43 43
102 167 114 240 6 40 5 65 -6 95 -20 56 -19 63 5 42 11 -10 24 -34 30 -54z
m-1107 1 c23 -20 22 -47 -3 -88 -23 -36 -49 -49 -80 -39 -26 8 -25 30 0 55 22
22 40 19 40 -6 0 -17 12 -18 28 -2 37 37 -8 73 -72 58 -67 -15 -111 -53 -147
-126 -30 -61 -33 -75 -32 -153 1 -105 21 -159 75 -205 80 -69 172 -69 224 -1
38 51 36 109 -6 174 -49 77 -83 89 -125 46 -32 -31 -32 -59 1 -92 20 -20 23
-28 12 -34 -20 -13 -27 -11 -55 17 -22 22 -25 32 -20 77 5 58 25 80 90 98 84
23 165 -31 193 -128 19 -66 13 -112 -27 -181 -67 -118 -203 -130 -317 -27 -77
69 -97 125 -97 265 1 84 5 125 17 151 20 46 82 115 119 135 66 34 146 36 182
6z m557 -193 c0 -42 -24 -83 -65 -115 -40 -30 -40 -39 -1 -25 40 16 33 -6 -9
-26 -22 -10 -35 -24 -35 -36 0 -15 6 -18 34 -14 57 8 62 -8 12 -37 -25 -14
-50 -34 -55 -44 -14 -25 -19 -14 -30 62 -14 97 -20 92 -15 -11 3 -48 5 -104 5
-123 0 -19 0 -67 0 -107 0 -65 -3 -75 -26 -95 -28 -24 -34 -58 -10 -58 8 0 24
9 34 19 19 19 19 19 14 -37 -3 -31 -17 -90 -29 -130 -13 -40 -24 -94 -25 -120
0 -46 -1 -44 -35 57 l-35 104 7 151 c6 137 8 148 22 128 18 -27 42 -29 42 -2
0 20 -27 40 -56 40 -9 0 -31 -16 -48 -35 -24 -28 -41 -37 -77 -41 -38 -5 -47
-3 -53 11 -9 25 -6 26 62 28 l60 2 6 59 c6 59 35 123 62 139 7 4 18 25 24 46
11 43 25 61 129 172 41 43 78 76 82 73 5 -3 9 -19 9 -35z m-411 3 c57 -39 82
-78 70 -109 -5 -13 -9 -32 -9 -41 1 -16 2 -16 14 1 12 15 14 13 20 -25 4 -24
10 -54 13 -67 6 -23 5 -23 -20 -6 -19 12 -33 39 -53 98 -30 90 -61 128 -119
147 -20 6 -33 16 -30 21 12 19 73 9 114 -19z m797 -233 c47 -29 87 -100 88
-156 1 -41 -3 -49 -41 -82 -23 -20 -72 -47 -109 -60 -80 -28 -137 -80 -153
-136 -25 -91 -4 -134 69 -141 63 -6 163 44 205 103 35 49 52 53 65 17 23 -58
-55 -148 -137 -159 -26 -3 -69 -13 -95 -21 -45 -13 -48 -13 -110 16 -35 17
-69 30 -76 30 -10 0 -7 13 11 43 13 23 28 67 32 97 14 107 68 165 192 204 110
36 136 106 65 176 -51 52 -108 67 -170 46 -25 -9 -47 -15 -48 -13 -2 2 3 13
12 25 31 45 136 51 200 11z m-53 -72 c62 -26 81 -74 43 -112 -38 -38 -57 -34
-44 9 14 43 4 82 -22 89 -11 3 -39 -5 -62 -16 -38 -19 -47 -31 -74 -95 -36
-84 -44 -96 -39 -56 2 16 4 43 4 60 1 41 37 92 81 115 41 22 69 24 113 6z
m-339 -34 c5 -11 -8 -31 -41 -65 -26 -26 -44 -51 -40 -54 4 -4 24 -2 46 4 50
15 51 15 51 -7 0 -11 -13 -31 -30 -44 -16 -14 -30 -28 -30 -30 0 -3 12 -8 26
-11 35 -9 28 -39 -11 -46 -42 -7 -45 -36 -4 -44 27 -5 30 -8 19 -21 -7 -8 -25
-15 -41 -15 -39 0 -41 -36 -3 -50 14 -6 24 -15 22 -22 -8 -22 -26 -19 -57 9
-30 27 -30 30 -20 73 6 26 9 101 7 177 -3 91 -1 130 6 127 6 -2 27 5 46 15 44
25 46 25 54 4z m-279 -193 c-5 -31 -14 -46 -36 -59 -22 -13 -26 -20 -17 -29 7
-7 18 -12 25 -12 9 0 13 -16 13 -51 0 -29 10 -92 22 -141 20 -81 21 -90 6
-104 -14 -15 -17 -13 -28 22 -6 22 -34 85 -62 142 -37 73 -53 118 -56 156 l-4
54 43 7 c56 9 76 20 84 46 11 34 18 13 10 -31z m-164 -265 c65 -34 91 -135 48
-188 -28 -37 -90 -54 -127 -37 l-27 13 36 11 c84 26 118 72 98 133 -12 38 -41
57 -74 49 -34 -9 -39 -35 -15 -69 39 -52 1 -79 -45 -32 -32 31 -33 80 -3 112
25 27 66 30 109 8z m975 -103 c-10 -78 -56 -139 -126 -169 -59 -25 -120 -42
-120 -32 0 11 -60 11 -120 -1 -25 -4 -46 -7 -48 -5 -1 1 2 13 8 27 9 20 25 27
88 40 82 17 130 14 139 -8 8 -22 19 -17 67 30 46 45 64 83 51 113 -6 15 -10
12 -18 -14 -10 -32 -72 -101 -82 -91 -4 3 5 18 19 33 14 15 32 46 41 68 9 24
30 52 48 65 30 21 33 21 45 5 9 -12 12 -33 8 -61z m-126 11 c-2 -25 -49 -100
-70 -110 -20 -10 -29 -9 -56 7 -17 11 -34 17 -37 14 -3 -4 -22 -3 -42 0 -76
15 -25 48 126 81 79 17 79 17 79 8z"/>
<path d="M1635 7363 c10 -10 104 -77 215 -155 72 -50 227 -148 235 -148 2 0 9
9 15 19 9 17 -6 29 -153 114 -184 107 -327 185 -312 170z"/>
<path d="M2867 7350 c-32 -4 -61 -10 -64 -14 -6 -6 30 -263 43 -308 4 -14 16
-18 49 -18 l44 0 6 53 c12 101 23 282 19 289 -6 9 -13 9 -97 -2z"/>
<path d="M3026 7318 c-3 -13 -10 -84 -16 -158 -7 -74 -13 -139 -13 -144 -3
-14 62 -31 74 -19 11 11 115 257 124 296 6 23 3 26 -45 36 -84 18 -119 15
-124 -11z"/>
<path d="M2653 7298 c-29 -11 -53 -26 -53 -32 1 -6 29 -72 64 -146 60 -128 65
-135 91 -133 15 1 29 4 32 6 4 5 -21 190 -38 275 -12 60 -17 61 -96 30z"/>
<path d="M8475 7189 c-137 -71 -255 -135 -261 -141 -10 -10 -10 -17 1 -31 12
-17 19 -14 109 38 83 48 343 211 401 251 46 33 -15 4 -250 -117z"/>
<path d="M3191 7133 c-59 -157 -62 -168 -45 -180 10 -7 23 -13 30 -13 24 0
239 265 228 281 -5 8 -137 79 -147 79 -2 0 -32 -75 -66 -167z"/>
<path d="M2487 7234 l-48 -25 25 -33 c14 -19 59 -81 101 -140 68 -94 79 -105
96 -96 10 6 19 14 19 19 0 9 -138 301 -142 301 -2 -1 -25 -12 -51 -26z"/>
<path d="M2361 7146 l-22 -24 118 -121 c66 -67 124 -121 131 -121 22 0 13 31
-22 73 -18 23 -61 81 -95 130 -34 48 -68 87 -75 87 -7 0 -23 -11 -35 -24z"/>
<path d="M3346 7045 c-58 -69 -106 -129 -106 -133 0 -5 8 -17 19 -26 17 -16
25 -12 165 84 80 56 146 106 146 110 0 9 -101 90 -112 90 -3 0 -53 -56 -112
-125z"/>
<path d="M2268 7063 l-26 -28 144 -110 c154 -117 164 -123 164 -105 0 11 -240
270 -251 270 -3 0 -17 -12 -31 -27z"/>
<path d="M1260 6992 c133 -110 270 -265 270 -307 0 -8 -20 -14 -54 -17 -127
-11 -187 -135 -110 -227 65 -77 186 -54 234 44 14 28 28 45 39 45 29 0 134
-73 180 -126 l43 -49 -7 35 c-12 55 -39 111 -84 170 -48 64 -41 71 40 41 29
-11 55 -18 58 -16 3 3 -6 29 -18 58 -13 28 -29 71 -35 95 -9 37 -14 42 -39 42
-43 0 -175 55 -377 156 -157 79 -178 88 -140 56z m239 -382 c4 0 17 -9 29 -20
52 -48 11 -140 -63 -140 -59 0 -101 63 -76 116 12 26 67 56 89 49 8 -3 17 -5
21 -5z"/>
<path d="M3453 6928 c-76 -50 -140 -93 -142 -94 -2 -2 10 -21 26 -43 l29 -40
127 127 c70 70 127 131 127 135 0 20 -41 -1 -167 -85z"/>
<path d="M4752 6976 c-81 -27 -161 -109 -182 -188 -40 -147 143 -269 316 -212
119 40 164 97 172 219 5 86 -3 105 -62 138 l-44 25 -6 -27 c-17 -83 -28 -141
-34 -176 -5 -28 -14 -43 -29 -50 -48 -21 -18 -34 33 -15 37 14 53 -3 23 -24
-33 -23 -100 -21 -133 5 -40 31 -33 46 29 60 l55 12 0 42 c0 23 7 64 15 91 17
58 19 90 5 99 -22 14 -117 14 -158 1z"/>
<path d="M2834 6970 c-109 -20 -213 -89 -255 -172 -30 -58 -26 -67 24 -57 23
4 59 8 81 9 l39 0 -7 -55 -6 -55 62 -31 c131 -66 210 -182 252 -371 13 -56 28
-104 34 -106 5 -1 18 23 27 55 44 155 106 289 180 387 41 55 52 93 20 66 -11
-9 -16 -6 -21 15 -4 16 -12 24 -19 21 -7 -2 -12 1 -11 9 4 24 26 43 62 49 l34
7 -30 44 c-91 133 -297 214 -466 185z"/>
<path d="M8623 6841 c-56 -26 -83 -71 -83 -138 0 -41 5 -58 26 -82 28 -34 68
-41 78 -15 3 8 -5 35 -19 58 -31 54 -32 80 0 111 18 19 35 25 65 25 30 0 47
-6 65 -25 40 -39 33 -55 -24 -55 -53 0 -73 -19 -49 -47 9 -12 25 -14 71 -8
l60 6 -5 -57 c-4 -49 -10 -62 -37 -86 -41 -37 -91 -38 -138 -2 -31 24 -36 25
-50 11 -21 -21 -8 -54 30 -78 38 -23 125 -26 165 -5 30 16 74 60 90 92 11 20
117 69 243 113 73 25 121 50 115 60 -3 4 -36 11 -74 14 -74 7 -171 36 -292 87
-97 41 -179 48 -237 21z"/>
<path d="M2395 6749 c-51 -27 -120 -92 -156 -148 -40 -61 -36 -66 14 -19 49
45 154 102 222 119 52 13 68 35 40 55 -27 20 -74 17 -120 -7z"/>
<path d="M4003 6685 c-13 -9 -28 -34 -34 -56 -11 -36 -10 -42 9 -67 42 -52 54
-83 47 -118 -6 -33 -46 -73 -87 -87 -12 -4 -16 -12 -11 -24 9 -27 83 -153 89
-153 3 0 2 6 -1 13 -4 6 2 2 13 -10 23 -26 34 -29 31 -10 -1 6 -1 19 1 27 1
11 4 9 9 -5 5 -12 10 18 15 82 4 56 13 146 21 199 21 139 20 170 -10 199 -28
29 -61 32 -92 10z"/>
<path d="M2481 6521 c-29 -10 -62 -28 -74 -39 l-20 -21 39 14 c50 18 158 18
207 1 92 -33 155 -116 164 -213 12 -133 -66 -253 -194 -299 -25 -9 -31 -14
-18 -15 101 -7 223 69 266 167 26 58 34 150 19 213 -38 158 -226 251 -389 192z"/>
<path d="M8955 6249 c-291 -56 -305 -60 -305 -85 0 -17 6 -24 18 -24 21 0 275
76 362 108 68 25 54 25 -75 1z"/>
<path d="M2396 6237 c-13 -13 -35 -60 -50 -104 -44 -131 -89 -179 -246 -258
-196 -99 -349 -262 -418 -448 -28 -73 -52 -211 -52 -291 0 -80 24 -226 49
-299 102 -294 380 -557 670 -632 147 -38 284 -31 513 27 161 40 308 43 408 9
119 -41 245 -124 356 -235 89 -90 106 -113 151 -206 28 -58 58 -128 66 -156
l15 -51 -101 -38 c-56 -20 -149 -58 -206 -84 l-104 -46 1 -70 c1 -39 -4 -97
-11 -130 -12 -58 -14 -60 -46 -63 -29 -3 -33 -1 -27 15 4 10 10 54 13 98 15
237 -129 484 -285 485 -38 0 -98 -28 -129 -62 -32 -34 -64 -112 -70 -172 -10
-95 49 -237 118 -287 35 -25 37 -18 4 25 -40 52 -58 106 -58 177 -2 177 133
199 241 39 48 -71 65 -137 60 -234 -3 -68 -10 -96 -36 -148 -58 -117 -157
-195 -239 -185 -43 5 -43 4 -63 -39 -10 -24 -25 -44 -33 -44 -17 0 -67 -62
-67 -83 0 -8 12 -22 26 -32 23 -15 26 -22 21 -56 -3 -21 -15 -52 -27 -69 -28
-39 -64 -37 -94 3 l-21 29 34 28 c40 34 37 60 -9 60 -24 0 -35 -7 -48 -31 -9
-17 -26 -42 -36 -56 l-20 -26 -23 27 c-25 30 -30 79 -12 120 12 26 45 43 93
48 37 4 43 21 17 47 -43 43 -124 13 -161 -58 -30 -59 -26 -124 10 -190 l30
-55 -45 -115 c-25 -64 -61 -141 -80 -171 -68 -108 -77 -130 -60 -136 10 -4 44
16 93 54 141 108 296 194 390 216 55 12 57 14 62 49 7 51 53 107 88 107 56 0
199 42 260 76 155 87 310 301 364 503 15 57 20 111 22 213 1 112 4 139 16 144
8 3 45 16 81 29 l67 23 6 -30 c9 -48 7 -184 -5 -283 -37 -300 -184 -547 -384
-646 -36 -17 -65 -34 -65 -36 0 -7 75 10 129 30 283 104 451 373 451 721 l0
119 32 -7 c94 -19 149 -71 174 -166 l13 -45 0 44 c2 123 -112 388 -246 571
-30 41 -148 167 -262 280 -292 290 -393 428 -492 669 l-52 129 -29 -62 c-80
-167 -240 -295 -465 -373 -212 -72 -441 0 -629 199 -79 84 -134 174 -158 258
-14 53 -32 208 -20 183 7 -16 43 -17 80 -3 15 6 31 7 35 3 4 -4 9 -37 11 -72
l3 -64 -40 -12 c-34 -9 -40 -15 -37 -36 1 -13 11 -32 21 -42 17 -18 20 -18 49
-3 44 23 48 21 66 -24 20 -51 21 -47 -14 -65 -32 -17 -32 -28 3 -78 l19 -28
24 22 c13 12 26 31 30 42 5 17 10 16 44 -18 l39 -38 -31 -21 c-17 -12 -33 -26
-35 -33 -4 -11 70 -73 87 -73 3 0 15 17 26 39 l19 39 43 -19 42 -18 -20 -33
c-27 -45 -25 -54 11 -67 62 -22 76 -16 83 34 8 48 13 51 75 39 29 -6 31 -9 31
-50 0 -43 1 -44 33 -44 17 1 44 6 60 13 l28 12 -21 40 c-11 21 -20 42 -20 45
0 9 91 43 98 35 4 -3 12 -21 18 -38 13 -38 27 -39 88 -3 l45 26 -45 42 -45 41
32 33 32 33 35 -46 36 -46 53 57 c57 61 115 165 134 239 9 37 8 55 -5 101 -34
116 -67 306 -77 439 -9 129 0 371 18 467 l6 34 -55 -47 c-124 -106 -234 -152
-399 -167 -120 -10 -246 -46 -335 -96 -152 -84 -236 -232 -252 -442 -6 -80 -9
-87 -29 -90 -22 -3 -23 -1 -23 84 0 53 8 121 21 176 12 49 18 92 15 95 -9 9
-95 -66 -132 -116 -18 -25 -54 -86 -79 -136 -52 -101 -51 -81 2 40 44 101 97
174 216 300 103 109 166 152 310 212 114 47 163 91 217 195 37 70 43 92 44
144 1 56 -2 66 -28 93 -37 39 -86 42 -120 8z m174 -758 c125 -29 263 -135 313
-242 75 -158 48 -360 -65 -483 -57 -63 -147 -120 -226 -144 -152 -47 -283 -7
-426 129 -79 77 -121 151 -143 255 -19 92 -10 164 30 241 37 71 135 173 195
204 92 47 222 63 322 40z"/>
<path d="M2380 5337 c-91 -26 -164 -89 -203 -176 -30 -67 -29 -180 2 -244 34
-69 101 -134 177 -169 59 -27 73 -30 138 -26 97 6 165 43 221 119 52 70 69
130 63 212 -9 111 -88 226 -184 268 -56 25 -156 33 -214 16z m180 -359 c54
-58 -15 -149 -89 -118 -29 12 -51 46 -51 80 0 56 98 83 140 38z"/>
<path d="M3355 6218 c-42 -103 -87 -250 -105 -346 -30 -156 -35 -146 64 -137
46 3 157 7 245 7 99 0 161 4 161 10 0 6 -7 7 -16 4 -8 -3 -13 -2 -10 2 2 4
-58 45 -135 92 l-139 84 -30 64 c-31 66 -36 97 -21 120 6 10 10 8 14 -10 4
-12 7 -33 7 -45 0 -49 48 -82 195 -133 133 -47 195 -64 130 -36 l-30 13 37 -1
c21 -1 34 -5 30 -11 -3 -5 -2 -7 3 -3 4 4 14 3 22 -3 7 -7 13 -7 13 -2 0 6
-57 65 -126 133 -72 69 -123 127 -120 135 3 8 -6 15 -22 18 -15 3 -49 24 -76
46 -26 23 -54 41 -61 41 -7 0 -21 -19 -30 -42z"/>
<path d="M1220 6144 c87 -27 396 -102 451 -109 48 -6 57 -4 63 11 4 9 3 21 -1
25 -7 6 -528 90 -550 88 -5 0 12 -7 37 -15z"/>
<path d="M8815 5758 c-127 -9 -144 -14 -145 -47 0 -11 14 -12 73 -7 81 8 390
56 396 62 7 7 -184 2 -324 -8z"/>
<path d="M3222 5544 c3 -132 5 -149 21 -152 9 -2 17 2 17 8 0 6 -4 8 -10 5 -5
-3 -10 0 -10 8 0 17 126 66 340 132 74 24 136 47 137 52 2 5 -37 14 -85 21
-85 11 -342 57 -390 69 l-23 5 3 -148z"/>
<path d="M1025 5604 c25 -9 412 -54 474 -54 55 0 70 3 75 16 4 9 4 19 2 22 -3
2 -90 8 -193 13 -196 8 -375 10 -358 3z"/>
<path d="M8637 5259 c-4 -13 -5 -25 -3 -27 7 -7 541 -15 535 -8 -6 6 -257 35
-445 51 -79 7 -81 6 -87 -16z"/>
<path d="M7630 5177 c-62 -32 -67 -127 -7 -152 27 -11 36 -11 59 1 32 17 46
70 28 104 -10 18 -10 21 2 14 9 -6 8 -1 -3 16 -19 29 -45 35 -79 17z"/>
<path d="M1528 5158 c-8 -7 -20 -22 -26 -33 -10 -18 -21 -20 -119 -20 -104 0
-183 -16 -183 -35 0 -5 16 -20 35 -33 l35 -24 -26 -24 c-15 -13 -54 -60 -87
-104 -34 -44 -110 -130 -169 -191 -97 -99 -123 -134 -101 -134 4 0 55 21 113
48 l105 47 162 1 c90 0 166 3 170 7 3 4 -8 23 -26 41 l-34 35 44 11 c25 7 65
9 96 5 59 -7 62 -4 36 49 -14 31 -15 40 -3 76 12 36 12 45 -2 68 -21 34 -44
39 -53 12 -8 -24 -76 -59 -113 -60 -27 0 -62 17 -62 30 0 5 10 18 22 29 19 19
20 23 8 46 -11 20 -11 27 1 41 16 19 80 14 107 -8 12 -10 34 -13 71 -10 l53 4
-6 37 c-3 20 -6 51 -6 69 0 34 -15 41 -42 20z"/>
<path d="M4005 5059 c-9 -17 -14 -37 -11 -45 3 -8 2 -12 -4 -9 -5 3 -14 -4
-20 -15 -10 -19 -13 -19 -33 -5 -12 8 -28 15 -37 15 -8 -1 -1 -7 17 -14 40
-18 48 -54 28 -126 -27 -100 -26 -106 4 -50 16 30 33 74 37 98 5 31 11 42 22
40 26 -5 39 -35 24 -58 -15 -24 -16 -33 -2 -25 16 10 11 -1 -7 -16 -14 -12
-16 -12 -9 1 4 8 1 6 -8 -4 -8 -10 -13 -23 -9 -29 3 -6 1 -7 -4 -4 -13 8 -60
-58 -72 -99 -26 -90 54 -176 138 -149 46 14 54 45 42 157 -6 57 -14 155 -18
218 -5 77 -9 105 -14 85 l-7 -30 -2 35 c-1 19 -4 27 -7 18 -5 -21 -23 -24 -23
-5 0 7 -7 4 -15 -7 -19 -26 -19 -13 0 24 9 17 13 30 11 30 -3 0 -13 -14 -21
-31z"/>
<path d="M8591 4761 c-7 -12 -10 -21 -7 -21 3 0 38 -7 78 -15 67 -15 395 -65
421 -65 27 0 -12 12 -193 58 -258 66 -285 70 -299 43z"/>
<path d="M7274 4428 c3 -57 8 -153 12 -214 l6 -111 51 -6 c28 -4 52 -5 53 -4
4 4 94 390 94 403 0 14 -103 34 -175 34 l-47 0 6 -102z"/>
<path d="M7082 4496 c-45 -13 -85 -25 -88 -29 -4 -4 110 -371 120 -383 1 -2
120 16 122 19 1 1 -5 52 -12 112 -7 61 -13 140 -14 176 0 91 -9 129 -29 128
-9 0 -53 -11 -99 -23z"/>
<path d="M8210 4485 c0 -4 20 -35 45 -70 38 -53 81 -142 73 -151 -2 -1 -23 2
-48 6 -57 11 -157 13 -164 2 -2 -4 33 -29 79 -55 118 -67 117 -66 38 -117 -56
-37 -64 -45 -47 -51 131 -51 324 -138 474 -215 102 -51 176 -86 164 -76 -12 9
-58 46 -103 81 -89 69 -171 169 -171 207 0 23 3 24 63 24 83 0 125 22 155 82
31 62 23 109 -28 161 -33 32 -44 37 -84 37 -57 0 -95 -18 -133 -65 l-30 -35
-51 59 c-65 75 -232 201 -232 176z m479 -199 c15 -8 33 -27 39 -42 25 -54 -24
-124 -87 -124 -24 0 -78 44 -86 71 -10 29 13 77 44 94 33 18 55 18 90 1z"/>
<path d="M7522 4333 c-59 -212 -67 -253 -51 -264 8 -5 21 -8 29 -6 15 2 229
323 230 345 0 13 -95 59 -141 69 -26 5 -27 3 -67 -144z"/>
<path d="M6837 4383 c-42 -26 -77 -51 -77 -55 0 -5 38 -55 85 -113 46 -58 95
-120 107 -140 26 -40 28 -40 69 -19 26 13 30 19 24 42 -11 44 -119 332 -125
332 -3 0 -40 -21 -83 -47z"/>
<path d="M1681 4374 c-42 -15 -207 -86 -359 -154 -40 -18 -71 -35 -68 -37 4
-5 283 84 418 133 90 33 96 37 85 55 -14 23 -19 23 -76 3z"/>
<path d="M7671 4204 c-105 -163 -112 -177 -97 -192 23 -23 31 -17 185 149
l134 143 -44 38 c-24 21 -48 38 -54 38 -5 0 -61 -79 -124 -176z"/>
<path d="M6639 4217 c-111 -94 -284 -291 -364 -415 -104 -162 -157 -312 -176
-502 -34 -329 47 -518 268 -627 51 -25 69 -28 154 -28 90 0 99 2 171 38 128
63 206 174 215 304 l4 68 -25 -58 c-49 -114 -121 -177 -228 -198 -46 -9 -65
-8 -114 6 -188 54 -295 227 -266 426 27 182 143 303 326 340 l64 12 4 104 c2
74 8 107 17 113 8 4 43 11 77 15 35 4 64 11 64 16 0 23 46 104 77 134 l33 32
-108 133 c-59 74 -113 135 -119 137 -6 2 -39 -20 -74 -50z"/>
<path d="M7855 4179 c-44 -50 -110 -119 -147 -154 -38 -35 -68 -68 -68 -74 0
-24 25 -21 63 10 23 19 98 76 167 128 69 51 129 97 134 102 9 8 -49 79 -63 79
-4 0 -42 -41 -86 -91z"/>
<path d="M2925 4104 c-11 -2 -45 -9 -75 -15 -129 -25 -289 -130 -359 -236 -29
-44 -66 -141 -57 -150 2 -3 16 16 31 41 33 57 95 113 153 138 24 11 88 25 141
31 262 29 516 -103 626 -325 l37 -77 52 21 c109 44 138 51 146 39 5 -9 32 -1
96 26 73 32 88 42 86 58 -2 11 -10 27 -18 35 -13 13 -23 11 -85 -23 -39 -22
-72 -37 -73 -35 -1 1 -27 48 -57 103 -95 174 -225 291 -379 339 -73 24 -221
40 -265 30z"/>
<path d="M7195 4060 c-136 -18 -242 -86 -294 -188 -35 -70 -27 -86 27 -55 29
17 31 16 72 -11 37 -24 41 -30 35 -56 -5 -21 -2 -31 11 -38 14 -8 14 -12 3
-33 -7 -13 -18 -46 -24 -74 l-12 -50 -16 31 c-15 30 -17 30 -74 26 -52 -4 -62
-1 -90 22 -35 30 -58 33 -67 10 -22 -58 19 -122 71 -110 81 20 80 20 87 -17 7
-40 27 -49 82 -37 35 8 36 8 27 -18 -15 -49 -9 -164 10 -203 54 -110 146 -170
270 -177 89 -5 89 -5 166 -142 87 -157 161 -235 207 -224 57 15 224 -84 374
-221 103 -95 134 -115 151 -98 7 7 2 21 -19 44 -51 59 -111 164 -153 265 -55
137 -58 161 -23 214 24 36 29 54 29 104 0 73 -24 113 -86 144 -63 32 -129 4
-129 -54 0 -21 3 -22 59 -17 50 5 61 3 80 -16 31 -31 28 -91 -5 -130 -31 -38
-47 -39 -68 -6 -13 20 -14 30 -5 47 10 18 8 24 -7 35 -26 19 -41 16 -60 -12
-9 -14 -24 -25 -33 -25 -9 0 -27 -7 -40 -16 -18 -13 -22 -23 -17 -48 7 -36 2
-44 -43 -76 l-34 -24 -35 40 c-34 39 -72 104 -72 124 0 5 19 24 43 41 31 23
49 29 69 25 63 -12 79 24 23 51 -22 11 -38 27 -42 42 -3 14 -16 41 -27 61 -18
29 -21 49 -19 124 3 105 -13 150 -77 220 -24 25 -38 46 -32 46 6 0 17 10 23
22 10 19 8 25 -20 50 -40 36 -56 35 -71 -1 -16 -40 -10 -64 20 -72 21 -6 21
-7 5 -8 -11 -1 -31 6 -43 15 -19 13 -22 24 -20 57 3 37 6 42 31 45 32 4 32 5
11 37 -15 23 -15 27 0 50 28 42 62 58 142 63 41 2 74 7 74 9 0 22 -42 72 -92
108 -94 70 -226 101 -353 85z"/>
<path d="M1915 3937 c-100 -49 -445 -252 -445 -263 0 -2 24 8 53 22 28 15 122
59 208 99 151 70 319 168 319 186 0 17 -25 9 -135 -44z"/>
<path d="M8035 3639 c-4 -6 -5 -12 -4 -13 60 -48 567 -353 539 -323 -17 17
-345 246 -418 292 -92 57 -106 62 -117 44z"/>
<path d="M2189 3547 c-84 -53 -439 -315 -439 -324 0 -3 12 3 28 13 15 10 115
71 222 137 248 151 305 193 289 213 -6 8 -12 14 -14 14 -1 0 -40 -24 -86 -53z"/>
<path d="M6632 3489 c-69 -34 -128 -95 -163 -167 -32 -68 -33 -179 -1 -244 32
-65 71 -91 143 -96 54 -4 60 -2 89 26 41 42 42 92 1 133 -35 34 -62 36 -106 9
-30 -19 -34 -19 -49 -5 -71 72 8 264 141 342 23 13 43 27 43 29 0 12 -44 0
-98 -27z"/>
<path d="M2499 3207 c-35 -30 -116 -110 -180 -178 -193 -207 -203 -221 -79
-114 179 154 351 317 347 329 -8 23 -28 14 -88 -37z"/>
<path d="M4098 3085 c-44 -24 -88 -142 -59 -159 5 -3 14 8 20 24 11 34 47 52
73 39 83 -44 -1 -182 -162 -268 l-64 -34 60 -28 c118 -56 244 -204 244 -287 0
-24 2 -23 45 17 24 22 49 41 54 41 6 0 -14 59 -44 130 -71 171 -72 180 -41
280 27 83 27 112 4 187 -11 38 -51 73 -82 73 -11 -1 -33 -7 -48 -15z"/>
<path d="M7087 2763 c-14 -13 -6 -32 59 -134 67 -105 251 -356 279 -379 19
-16 -116 213 -229 388 -81 126 -94 141 -109 125z"/>
<path d="M6031 2613 c-39 -72 -41 -81 -31 -116 9 -30 8 -44 -5 -72 -9 -19 -23
-39 -31 -46 -19 -16 -18 -24 10 -67 14 -20 28 -49 31 -65 11 -44 22 -40 41 15
32 100 61 143 146 221 81 73 131 137 108 137 -6 0 -31 -5 -55 -11 -58 -15
-106 1 -144 48 l-29 35 -41 -79z"/>
<path d="M6726 2487 c-16 -12 -13 -21 37 -134 66 -145 240 -466 214 -393 -25
69 -227 540 -231 540 -1 0 -10 -6 -20 -13z"/>
<path d="M3486 2448 c-24 -33 -220 -458 -213 -464 6 -7 119 188 200 344 69
133 76 152 58 152 -11 0 -31 -15 -45 -32z"/>
<path d="M4308 2375 c-32 -18 -41 -44 -40 -109 1 -39 7 -55 28 -78 47 -48 81
-52 370 -38 143 7 267 11 274 8 13 -4 -145 -39 -290 -64 -41 -7 -115 -13 -163
-13 -89 -1 -89 -1 -124 34 l-35 35 -41 -35 c-22 -19 -44 -35 -49 -35 -4 0 -8
-9 -8 -19 0 -13 16 -29 49 -47 57 -31 76 -65 75 -136 -1 -60 -23 -92 -84 -123
-28 -14 -50 -32 -50 -40 0 -8 17 -23 38 -34 56 -29 84 -64 89 -114 7 -60 -16
-102 -72 -129 -54 -26 -62 -43 -30 -63 14 -8 36 -21 49 -29 35 -22 58 -79 50
-123 -7 -37 -46 -85 -88 -109 -26 -14 -15 -29 42 -58 55 -28 76 -50 125 -128
37 -59 108 -110 172 -124 42 -9 134 -107 196 -209 33 -54 65 -93 84 -103 26
-15 65 -17 281 -17 l250 0 41 27 c31 21 52 49 89 117 59 113 90 143 193 186
132 54 175 96 212 202 23 68 50 99 107 125 49 22 52 33 17 60 -36 28 -55 70
-55 120 0 57 17 87 68 121 23 16 42 32 42 37 0 6 -22 21 -50 35 -96 49 -95
120 3 182 40 25 41 26 20 42 -11 9 -34 23 -51 33 -97 53 -92 178 10 241 53 33
56 40 29 63 -86 73 -96 88 -115 185 -3 14 -17 37 -31 51 l-25 26 -58 -18
c-185 -58 -681 -87 -990 -59 -101 9 -123 8 -162 -6 -60 -22 -332 -34 -355 -15
-28 23 -16 30 53 30 64 0 174 14 217 27 18 5 18 6 -4 15 -60 22 -168 40 -218
36 l-53 -5 20 22 c33 35 0 48 -52 20z m1712 -319 c0 -8 -117 -89 -140 -97 -14
-4 -149 -24 -300 -44 -151 -20 -394 -52 -540 -71 -441 -58 -542 -68 -595 -58
-42 7 -46 30 -7 38 100 20 230 38 382 51 412 37 1047 128 1138 164 49 20 62
23 62 17z m-60 -423 c0 -10 -38 -73 -43 -73 -3 0 -26 -4 -54 -9 -70 -14 -277
-37 -584 -66 -147 -13 -395 -41 -550 -60 -300 -37 -349 -41 -349 -26 0 23 133
48 545 101 337 43 857 114 945 128 73 13 90 13 90 5z m19 -419 c-57 -61 -92
-71 -334 -94 -121 -11 -353 -34 -515 -51 -317 -33 -680 -49 -680 -32 0 14 82
28 300 53 96 11 225 27 285 35 61 8 232 28 380 45 149 17 340 41 425 54 85 13
159 25 164 25 6 1 -6 -15 -25 -35z m-1199 -374 c52 -15 111 -33 130 -38 48
-13 -77 -4 -181 13 -100 17 -134 34 -200 101 l-54 55 105 -51 c58 -28 148 -64
200 -80z m1040 90 c-59 -83 -143 -122 -298 -139 -146 -16 -148 -14 -42 23 52
18 151 58 220 89 69 31 129 56 133 57 5 0 -1 -13 -13 -30z"/>
<path d="M6300 2303 c0 -44 44 -188 104 -335 57 -141 116 -270 116 -253 0 20
-110 373 -153 489 -43 120 -67 154 -67 99z"/>
<path d="M3946 2302 c-22 -37 -171 -574 -164 -592 4 -13 133 330 162 431 37
130 41 155 22 162 -8 3 -17 3 -20 -1z"/>
</g>
</svg>
